<?xml version="1.0" standalone="no"?>
<!DOCTYPE svg PUBLIC "-//W3C//DTD SVG 20010904//EN"
 "http://www.w3.org/TR/2001/REC-SVG-20010904/DTD/svg10.dtd">
<svg version="1.0" xmlns="http://www.w3.org/2000/svg"
 width="1051.000000pt" height="1080.000000pt" viewBox="0 0 1051.000000 1080.000000"
 preserveAspectRatio="xMidYMid meet">

<g transform="translate(0.000000,1080.000000) scale(0.100000,-0.100000)"
fill="#000000" stroke="none">
<path d="M1473 10702 c-10 -6 -13 -428 -15 -1920 -2 -1052 -1 -1912 2 -1912 3
0 30 16 60 35 128 82 401 163 643 190 158 18 481 20 618 5 192 -22 366 -73
457 -134 l47 -31 3 -585 c1 -322 0 -590 -2 -596 -3 -7 -30 1 -73 23 -96 47
-252 90 -401 109 -161 21 -571 15 -732 -10 -221 -35 -438 -101 -569 -174 l-64
-35 7 -251 c6 -238 13 -337 35 -486 17 -115 41 -254 52 -300 5 -25 14 -63 18
-85 21 -97 103 -375 131 -440 4 -11 25 -65 45 -119 21 -54 44 -111 51 -125 8
-14 14 -30 14 -35 0 -15 107 -229 175 -350 55 -100 118 -198 245 -386 115
-169 388 -468 600 -657 102 -91 408 -323 425 -323 2 0 35 -20 72 -44 100 -64
325 -184 438 -233 168 -74 220 -93 470 -173 30 -9 167 -44 240 -61 51 -11 244
-44 360 -60 50 -7 191 -13 325 -13 l235 -1 3 4579 c1 3191 -1 4583 -8 4590
-13 13 -3888 20 -3907 8z m2076 -525 l112 -164 127 -12 c275 -28 373 -39 378
-44 5 -4 -82 -68 -273 -201 -46 -32 -83 -61 -83 -66 0 -5 18 -87 40 -181 22
-95 39 -174 36 -176 -2 -2 -106 34 -230 81 l-227 85 -225 -84 c-124 -47 -229
-85 -233 -85 -6 0 39 207 73 340 7 23 -6 34 -179 155 -158 110 -183 131 -163
136 13 3 86 12 163 19 77 7 183 18 235 24 l94 11 61 87 c33 48 84 121 113 162
29 42 56 76 61 76 4 0 58 -73 120 -163z m-1024 -1633 l89 -151 214 -26 c118
-15 217 -29 221 -32 3 -3 1 -9 -5 -13 -45 -29 -304 -248 -304 -257 0 -6 16
-87 35 -179 20 -93 34 -172 33 -177 -2 -4 -88 31 -192 77 -104 46 -194 84
-202 84 -7 0 -94 -36 -193 -80 -100 -44 -186 -80 -192 -80 -14 0 -9 37 30 220
20 92 26 139 19 147 -6 7 -77 68 -160 135 l-149 123 33 7 c18 4 116 16 218 28
145 16 188 25 198 38 8 9 54 86 104 170 80 136 91 152 102 135 7 -10 52 -86
101 -169z m2029 0 l88 -151 187 -22 c254 -30 254 -30 240 -47 -7 -8 -76 -67
-155 -131 -79 -64 -144 -122 -144 -128 0 -6 16 -86 35 -178 19 -92 35 -169 35
-172 0 -12 -34 0 -202 75 -99 44 -187 80 -194 80 -7 0 -95 -36 -194 -80 -99
-44 -185 -80 -190 -80 -15 0 -13 14 25 197 19 92 31 170 27 174 -4 3 -76 62
-160 130 l-154 124 34 7 c18 4 116 16 218 28 145 16 188 25 198 38 8 9 54 86
104 170 79 136 91 152 102 135 7 -10 52 -86 100 -169z m61 -1458 c224 -36 425
-100 562 -180 l53 -31 0 -598 0 -597 -77 39 c-240 120 -565 181 -963 181 -218
0 -361 -14 -497 -49 -45 -12 -84 -21 -87 -21 -3 0 -5 271 -4 601 l3 602 39 13
c46 17 165 41 256 54 111 15 590 5 715 -14z"/>
<path d="M8975 10633 c-15 -38 -146 -372 -290 -743 -145 -371 -343 -877 -440
-1125 -206 -525 -580 -1481 -641 -1640 -61 -156 -97 -249 -309 -790 -103 -264
-272 -696 -375 -960 -103 -264 -260 -667 -350 -895 -89 -228 -254 -651 -367
-940 -112 -289 -224 -574 -248 -635 -23 -60 -112 -285 -196 -500 -84 -214
-194 -497 -246 -628 -51 -132 -93 -242 -93 -246 0 -13 259 8 370 29 25 5 86
16 135 25 191 34 529 133 680 200 28 12 66 28 85 35 159 62 554 288 730 419
443 329 796 725 1098 1228 67 113 227 451 272 578 12 33 25 69 30 80 20 45 82
257 115 394 45 188 51 214 70 346 8 61 20 140 25 176 7 48 15 4639 10 5632 0
20 -5 27 -19 27 -14 0 -26 -17 -46 -67z"/>
</g>
</svg>
